<?xml version="1.0" encoding="UTF-8" ?>
<!DOCTYPE svg PUBLIC "-//W3C//DTD SVG 1.1//EN" "http://www.w3.org/Graphics/SVG/1.1/DTD/svg11.dtd">
<svg width="544pt" height="442pt" viewBox="0 0 544 442" version="1.1" xmlns="http://www.w3.org/2000/svg">
<g id="#dfe1e0ff">
</g>
<g id="#010101ff">
<path fill="#010101" opacity="1.00" d=" M 190.55 18.43 C 206.06 12.79 222.63 11.19 238.97 10.05 C 251.60 10.01 264.25 9.68 276.86 10.53 C 283.96 12.13 291.31 11.91 298.54 12.55 C 309.12 13.69 319.83 14.80 329.96 18.26 C 330.60 18.34 331.89 18.50 332.53 18.58 L 332.57 19.35 C 333.20 19.43 334.47 19.59 335.10 19.67 C 336.44 20.16 337.69 20.87 338.95 21.56 C 339.22 21.56 339.77 21.57 340.04 21.57 C 343.77 23.35 347.33 25.88 351.59 26.12 C 353.14 27.27 355.37 28.03 355.84 30.13 C 363.62 58.05 371.49 86.11 374.92 114.96 C 377.15 134.00 377.48 153.50 373.51 172.34 C 366.63 204.81 345.51 234.13 316.44 250.28 C 304.21 256.80 290.94 261.93 277.06 263.22 C 276.87 303.14 276.97 343.06 276.98 382.98 C 294.49 384.64 312.41 385.80 328.99 392.18 C 334.21 394.48 339.65 397.37 342.77 402.34 C 345.59 406.96 343.70 413.22 339.63 416.47 C 331.14 423.60 320.04 426.34 309.43 428.52 C 300.41 430.33 291.25 431.04 282.12 431.94 C 260.24 432.49 238.09 432.66 216.69 427.43 C 208.70 425.51 200.58 423.07 193.85 418.18 C 189.82 415.27 186.98 410.15 188.26 405.12 C 190.01 399.46 195.36 396.01 200.41 393.54 C 213.08 387.64 227.16 385.95 240.88 384.29 C 245.33 383.87 249.82 383.95 254.24 383.16 C 254.62 350.78 254.27 318.39 254.36 286.01 C 254.17 278.38 254.69 270.73 254.16 263.12 C 224.06 259.35 196.00 242.16 178.41 217.53 C 167.80 203.34 160.90 186.56 157.57 169.21 C 154.04 151.72 154.55 133.72 156.63 116.09 C 159.73 90.04 166.35 64.52 174.55 39.64 C 176.15 34.90 177.83 30.17 179.11 25.32 C 181.87 21.59 186.41 20.06 190.55 18.43 M 222.46 18.55 C 210.42 20.34 198.10 22.22 187.05 27.60 C 186.64 29.60 189.23 30.54 190.42 31.74 C 200.38 38.20 212.46 39.81 223.89 41.92 C 226.14 42.03 226.10 44.71 226.78 46.27 C 219.84 56.88 215.04 68.67 208.76 79.66 C 208.30 80.79 207.13 82.38 208.23 83.49 C 215.53 92.22 223.13 100.67 230.82 109.05 C 233.72 111.53 231.34 115.23 229.24 117.31 C 221.36 127.24 213.22 136.97 205.53 147.05 C 234.48 146.22 264.31 154.35 286.93 172.89 C 291.73 175.65 295.29 180.03 300.05 182.86 C 303.90 185.08 306.88 188.46 310.51 191.00 C 311.92 189.56 313.30 188.09 314.63 186.59 C 308.58 176.22 300.11 167.52 292.81 158.04 C 289.96 153.95 285.81 150.88 283.45 146.46 C 282.00 143.98 284.97 141.92 286.84 140.84 C 297.92 134.40 308.69 127.46 319.66 120.84 C 322.91 118.66 326.58 117.12 329.53 114.51 C 315.88 107.22 302.52 99.43 289.01 91.88 C 286.93 90.65 284.43 89.71 283.19 87.49 C 282.59 85.99 283.55 84.61 284.26 83.37 C 289.38 75.09 294.21 66.62 299.44 58.40 C 302.34 53.96 304.65 49.11 308.15 45.09 C 318.56 43.39 328.71 40.05 338.01 35.05 C 340.28 33.85 342.37 32.34 344.23 30.56 C 342.44 29.78 340.66 28.99 338.88 28.20 C 337.23 27.46 335.56 26.75 333.90 26.07 C 329.10 24.23 324.12 22.94 319.10 21.86 C 311.82 20.45 304.42 19.73 297.10 18.82 C 291.40 18.31 285.63 18.55 280.05 17.10 C 260.86 17.24 241.54 16.08 222.46 18.55 M 182.92 35.78 C 173.02 66.74 164.33 98.44 162.06 131.00 C 162.04 141.02 161.51 151.10 163.06 161.04 C 166.97 186.90 179.04 211.83 198.35 229.68 C 215.24 244.93 237.03 255.32 259.92 256.56 C 297.19 258.78 333.93 237.46 352.77 205.63 C 364.72 186.72 369.59 164.15 369.88 142.00 C 369.96 135.62 369.05 129.28 368.83 122.91 C 365.63 93.27 358.50 64.16 349.84 35.68 C 339.15 43.17 327.01 48.49 314.25 51.28 C 311.08 51.68 309.90 54.96 308.39 57.31 C 302.79 66.55 297.01 75.68 291.54 85.00 C 306.58 94.26 322.41 102.20 337.48 111.43 C 338.95 112.15 339.57 113.72 340.26 115.10 C 337.40 118.78 333.13 120.78 329.28 123.20 C 316.87 130.66 304.51 138.22 292.21 145.87 C 303.17 159.39 314.02 172.99 324.90 186.57 C 322.43 189.22 319.18 191.52 318.52 195.34 C 319.24 195.07 320.69 194.53 321.42 194.26 C 335.58 189.96 348.08 181.40 358.24 170.74 C 360.20 172.10 362.04 174.27 361.44 176.84 C 360.22 183.87 356.79 190.27 353.64 196.60 C 343.63 215.97 327.67 232.36 307.94 241.86 C 290.70 250.18 270.96 254.22 251.93 250.97 C 231.54 247.86 212.62 237.41 198.21 222.79 C 184.90 209.97 175.78 193.21 170.64 175.56 C 169.26 169.56 167.61 163.50 167.98 157.29 C 169.97 154.04 173.54 152.32 177.06 151.24 C 183.09 149.43 189.31 148.31 195.55 147.55 C 195.84 147.37 196.41 147.01 196.70 146.83 C 205.49 135.12 214.89 123.88 224.18 112.57 C 218.68 105.88 212.72 99.59 207.14 92.98 C 204.40 89.63 200.97 86.84 198.90 82.98 C 205.07 71.37 211.24 59.75 217.24 48.06 C 209.02 46.12 200.60 44.69 192.84 41.22 C 189.30 39.85 186.24 37.58 182.92 35.78 M 201.60 154.45 C 198.60 154.61 196.76 157.27 194.72 159.12 C 196.12 163.14 199.92 165.41 202.45 168.63 C 204.28 170.55 205.78 173.52 208.83 173.44 C 214.99 173.96 221.20 173.70 227.38 173.45 C 230.25 176.44 231.88 180.28 234.10 183.72 C 238.00 190.33 243.49 195.78 249.21 200.81 C 261.08 210.11 275.79 215.46 290.77 216.73 C 293.95 214.55 296.46 211.58 298.21 208.14 C 300.24 204.12 303.60 200.99 305.89 197.16 C 301.63 191.11 294.71 187.57 288.88 183.17 C 278.12 174.00 265.88 166.46 252.67 161.38 C 236.54 154.85 218.83 153.45 201.60 154.45 M 175.14 158.91 C 179.93 166.02 188.02 170.50 196.36 171.98 C 193.68 168.59 190.32 165.80 187.71 162.35 C 186.23 160.08 188.11 157.51 189.09 155.45 C 184.33 156.13 179.67 157.31 175.14 158.91 M 177.03 172.30 C 181.13 190.06 190.89 206.29 203.96 218.91 C 217.49 232.90 235.88 241.97 255.11 244.75 C 271.39 246.95 288.03 243.52 302.94 236.90 C 315.21 230.62 326.88 222.45 335.41 211.50 C 331.76 211.92 328.60 213.90 325.25 215.25 C 312.07 221.07 297.46 225.06 282.97 222.65 C 264.59 219.66 247.14 210.24 235.09 195.95 C 231.35 190.88 227.43 185.92 224.18 180.52 C 218.82 180.55 213.44 180.89 208.08 180.56 C 197.36 179.51 186.81 176.86 177.03 172.30 M 311.89 201.57 C 308.45 205.95 304.62 210.05 301.78 214.86 C 307.44 214.31 312.88 212.54 318.14 210.42 C 329.68 206.08 340.96 199.51 347.77 188.90 C 337.29 196.23 324.90 201.75 311.89 201.57 M 261.19 264.00 C 260.99 305.67 261.32 347.36 261.02 389.04 C 260.57 396.92 254.95 403.75 248.05 407.20 C 245.31 408.68 241.59 410.59 238.96 407.87 C 238.96 406.66 238.97 405.45 238.98 404.25 C 242.04 401.65 246.14 400.70 249.07 397.91 C 251.56 395.85 252.99 392.90 254.13 389.94 C 238.15 391.88 221.67 392.27 206.51 398.27 C 202.11 400.01 198.00 402.55 194.96 406.22 C 194.96 406.86 194.95 408.14 194.95 408.79 C 196.31 410.80 197.98 412.64 200.12 413.85 C 209.14 419.36 219.71 421.44 230.01 423.06 C 248.54 426.01 267.40 425.81 286.08 424.70 C 298.49 423.47 310.95 421.67 322.86 417.87 C 328.32 416.07 333.94 413.54 337.16 408.52 C 336.82 403.42 331.37 401.39 327.55 399.23 C 311.60 392.21 293.94 391.71 276.90 389.92 C 278.20 393.09 279.94 396.19 282.73 398.31 C 285.72 400.96 290.24 401.20 292.89 404.30 C 294.23 406.63 292.29 408.76 290.25 409.74 C 280.00 407.39 270.56 398.99 269.97 388.02 C 269.94 346.69 270.04 305.36 270.00 264.03 C 267.06 264.06 264.13 264.04 261.19 264.00 Z" />
<path fill="#010101" opacity="1.00" d=" M 110.78 123.93 C 111.60 122.76 113.03 122.43 114.27 121.92 C 115.18 122.72 116.09 123.52 117.00 124.31 C 116.99 125.36 116.98 126.41 116.97 127.46 C 84.28 170.33 51.40 213.04 18.80 255.98 C 16.95 258.47 14.93 260.83 12.76 263.04 C 11.62 263.03 10.49 263.01 9.36 263.00 C 9.02 262.52 8.34 261.58 8.00 261.10 C 8.01 260.45 8.02 259.16 8.03 258.51 C 24.89 236.55 41.44 214.34 58.31 192.39 C 75.83 169.60 93.50 146.91 110.78 123.93 Z" />
<path fill="#010101" opacity="1.00" d=" M 125.37 121.99 C 125.97 122.04 127.17 122.14 127.77 122.18 C 128.52 122.73 129.28 123.28 130.04 123.82 C 130.09 167.97 130.40 212.11 130.04 256.26 C 140.93 257.31 151.95 256.43 162.88 256.88 C 165.52 257.81 165.38 261.21 163.81 263.09 C 156.90 263.75 149.96 263.42 143.03 263.55 C 136.74 263.54 130.39 263.98 124.15 262.97 C 122.39 257.84 123.22 252.35 123.03 247.04 C 123.38 206.69 122.86 166.33 123.09 125.97 C 122.83 124.23 124.47 123.22 125.37 121.99 Z" />
<path fill="#010101" opacity="1.00" d=" M 481.31 126.41 C 482.66 124.66 484.32 123.19 486.00 121.76 C 487.53 122.91 489.75 123.94 490.02 126.06 C 489.48 127.39 488.60 128.55 487.75 129.70 C 465.46 158.51 443.77 187.78 421.28 216.43 C 412.80 227.27 404.42 238.20 395.89 249.00 C 392.19 253.71 388.86 258.75 384.60 263.00 C 383.48 262.99 382.36 262.99 381.25 263.00 C 380.52 261.96 379.81 260.91 379.10 259.86 C 381.06 256.05 384.06 252.95 386.61 249.54 C 411.88 217.43 436.45 184.77 461.58 152.55 C 468.17 143.85 474.75 135.14 481.31 126.41 Z" />
<path fill="#010101" opacity="1.00" d=" M 498.51 121.97 C 500.62 122.09 503.22 123.52 502.99 125.95 C 502.99 169.52 502.89 213.10 503.00 256.67 C 513.35 256.96 523.71 256.61 534.06 256.64 C 537.70 256.51 538.45 262.38 534.90 263.15 C 529.64 263.99 524.27 263.39 518.97 263.53 C 511.67 263.28 504.31 264.01 497.05 262.99 C 496.54 261.75 495.90 260.49 496.00 259.11 C 496.01 214.21 496.01 169.32 496.00 124.42 C 496.83 123.61 497.67 122.79 498.51 121.97 Z" />
<path fill="#010101" opacity="1.00" d=" M 112.43 145.83 C 113.68 146.06 115.08 146.15 115.95 147.23 C 116.29 149.46 116.21 151.73 116.23 153.99 C 116.11 186.33 116.32 218.68 116.20 251.03 C 116.14 254.53 116.43 258.06 115.86 261.53 C 114.85 263.66 111.97 263.10 110.02 263.42 C 87.05 263.63 64.07 263.67 41.09 263.57 C 36.07 263.51 31.04 263.49 26.05 262.83 C 25.89 260.56 25.83 258.20 27.62 256.51 C 52.46 223.47 77.57 190.63 102.78 157.86 C 106.23 154.02 108.60 149.33 112.43 145.83 M 78.21 201.30 C 64.37 219.84 50.15 238.11 36.48 256.79 C 59.65 257.02 82.83 256.63 106.00 256.81 C 107.38 256.66 110.13 257.25 109.68 254.98 C 109.42 223.74 109.58 192.50 109.39 161.26 C 98.56 174.26 88.71 188.03 78.21 201.30 Z" />
<path fill="#010101" opacity="1.00" d=" M 484.58 146.17 C 487.28 145.26 489.27 148.49 488.92 150.90 C 489.03 186.27 488.81 221.65 488.91 257.03 C 489.01 259.03 488.64 261.01 487.85 262.85 C 466.94 264.01 445.95 263.33 425.01 263.57 C 416.08 263.22 407.08 264.04 398.19 262.85 C 398.02 261.16 397.32 259.16 398.75 257.81 C 410.00 242.49 421.77 227.55 433.29 212.44 C 448.53 192.67 463.46 172.65 478.86 153.01 C 480.71 150.70 482.10 147.90 484.58 146.17 M 467.45 179.46 C 457.90 192.50 447.45 204.85 438.03 217.99 C 428.35 231.08 417.71 243.45 408.43 256.82 C 432.97 256.72 457.54 257.23 482.05 256.50 C 481.88 224.50 482.11 192.50 481.97 160.50 C 476.83 166.59 472.31 173.16 467.45 179.46 Z" />
<path fill="#010101" opacity="1.00" d=" M 7.08 273.99 C 8.00 272.97 8.37 270.96 10.01 270.95 C 16.30 270.47 22.62 270.85 28.93 270.69 C 57.90 270.86 86.88 270.53 115.84 271.12 C 116.81 288.34 115.97 305.61 116.19 322.85 C 116.87 326.85 109.97 327.51 109.65 323.64 C 109.36 308.39 109.76 293.13 109.63 277.89 C 76.86 277.40 44.07 277.91 11.31 277.54 C 9.05 277.68 7.91 275.75 7.08 273.99 Z" />
<path fill="#010101" opacity="1.00" d=" M 124.21 271.02 C 137.39 270.84 150.60 270.47 163.77 270.94 C 164.97 272.44 165.69 274.65 164.41 276.34 C 163.18 277.36 161.49 277.34 159.99 277.49 C 150.14 278.03 140.27 277.24 130.44 277.98 C 130.01 293.34 130.54 308.71 130.10 324.07 C 129.86 327.09 126.06 326.62 124.05 325.82 C 123.24 322.27 123.40 318.62 123.37 315.01 C 123.38 301.65 123.21 288.30 123.18 274.94 C 123.06 273.54 123.75 272.28 124.21 271.02 Z" />
<path fill="#010101" opacity="1.00" d=" M 380.36 270.99 C 384.89 270.52 389.44 270.67 393.99 270.70 C 425.25 270.94 456.52 270.59 487.78 270.93 C 488.24 272.22 488.91 273.51 488.83 274.94 C 488.83 289.98 488.68 305.02 488.75 320.07 C 488.98 322.82 488.26 325.70 485.59 327.02 C 484.06 326.10 481.51 325.32 481.94 323.06 C 481.99 307.93 481.98 292.80 482.02 277.67 C 449.68 277.60 417.32 277.63 384.97 277.78 C 382.75 277.93 380.61 277.31 378.96 275.80 C 378.97 275.04 379.00 273.52 379.01 272.76 C 379.35 272.32 380.02 271.43 380.36 270.99 Z" />
<path fill="#010101" opacity="1.00" d=" M 496.03 273.04 C 495.94 271.60 497.60 270.70 498.90 270.94 C 511.17 270.93 523.45 270.56 535.72 270.97 C 536.39 271.92 537.06 272.87 537.72 273.83 C 537.47 274.58 536.97 276.07 536.72 276.81 C 535.52 277.16 534.35 277.72 533.08 277.72 C 523.06 277.96 513.03 277.71 503.00 277.94 C 502.88 293.00 503.04 308.06 502.91 323.12 C 503.20 325.08 501.22 326.04 499.87 326.96 C 498.90 326.55 497.94 326.15 496.98 325.78 C 496.29 324.28 495.87 322.66 496.00 321.01 C 496.04 305.02 495.95 289.03 496.03 273.04 Z" />
<path fill="#010101" opacity="1.00" d=" M 297.98 345.94 C 298.87 344.59 300.00 342.72 301.90 343.03 C 308.30 342.99 314.70 342.97 321.10 343.03 C 322.42 342.95 323.53 343.76 324.72 344.21 C 324.99 344.78 325.53 345.93 325.80 346.50 C 325.07 347.73 324.27 348.92 323.38 350.05 C 316.24 350.02 309.09 350.06 301.94 350.03 C 299.74 350.31 298.05 347.94 297.98 345.94 Z" />
<path fill="#010101" opacity="1.00" d=" M 382.14 354.87 C 383.03 353.92 383.39 351.92 384.98 352.01 C 396.87 351.63 408.81 352.51 420.54 354.54 C 426.49 355.75 433.40 356.87 437.06 362.32 C 436.96 364.05 437.23 365.87 436.68 367.55 C 435.38 369.71 433.10 370.98 430.86 371.97 C 421.10 376.01 410.43 376.94 399.99 377.50 C 397.76 377.38 396.18 375.31 396.89 373.15 C 397.20 371.06 399.50 370.88 401.16 370.64 C 410.65 369.51 420.74 369.33 429.37 364.72 C 421.02 360.14 411.17 360.47 401.99 359.19 C 395.81 358.40 389.33 360.05 383.38 357.79 C 382.97 356.81 382.55 355.84 382.14 354.87 Z" />
<path fill="#010101" opacity="1.00" d=" M 192.32 352.97 C 199.90 353.02 207.47 352.89 215.05 352.95 C 217.74 354.65 217.70 358.44 214.97 360.08 C 207.34 360.03 199.71 360.16 192.08 360.06 C 191.46 359.00 190.79 357.97 190.36 356.83 C 189.63 355.17 191.56 354.16 192.32 352.97 Z" />
<path fill="#010101" opacity="1.00" d=" M 140.04 358.08 C 147.83 355.97 156.06 356.24 164.03 357.04 C 168.69 357.66 173.66 358.76 176.97 362.38 C 177.40 364.78 177.39 367.22 177.00 369.63 C 172.03 375.27 163.91 375.10 157.04 375.93 C 151.32 375.83 145.47 375.39 139.95 373.80 C 136.15 372.61 132.16 369.29 132.90 364.88 C 132.85 361.04 136.83 358.98 140.04 358.08 M 146.48 363.70 C 144.53 364.14 142.01 364.12 140.89 366.07 C 142.72 368.06 145.58 368.37 148.13 368.59 C 152.71 368.76 157.30 368.85 161.87 368.57 C 164.82 368.24 168.21 367.89 170.10 365.30 C 162.44 363.11 154.35 363.02 146.48 363.70 Z" />
<path fill="#010101" opacity="1.00" d=" M 310.95 368.39 C 313.12 364.97 317.00 362.97 321.03 362.89 C 326.31 362.51 332.12 362.24 336.78 365.19 C 339.25 366.64 340.78 369.77 339.74 372.56 C 338.12 376.43 333.83 378.04 330.02 378.83 C 325.52 379.20 320.88 379.35 316.55 377.84 C 314.70 376.58 312.31 375.62 311.44 373.39 C 310.74 371.82 311.08 370.04 310.95 368.39 M 319.10 370.06 C 319.25 370.62 319.53 371.73 319.67 372.29 C 323.84 372.39 328.46 373.28 332.11 370.71 C 328.12 368.51 323.38 369.42 319.10 370.06 Z" />
<path fill="#010101" opacity="1.00" d=" M 187.95 372.18 C 189.16 371.52 190.44 370.84 191.88 371.00 C 196.27 371.00 200.66 370.89 205.05 371.05 C 206.64 371.02 207.80 372.28 209.04 373.09 C 209.02 373.79 208.97 375.17 208.95 375.86 C 208.22 376.56 207.49 377.27 206.76 377.99 C 200.88 378.41 194.99 378.43 189.11 378.05 C 187.74 376.35 187.80 374.24 187.95 372.18 Z" />
<path fill="#010101" opacity="1.00" d=" M 358.07 371.02 C 365.00 370.93 371.93 370.76 378.86 371.01 C 379.57 371.74 380.28 372.47 381.00 373.20 C 381.00 373.83 381.00 375.10 381.00 375.73 C 380.18 376.49 379.36 377.26 378.54 378.04 C 372.33 378.01 366.12 378.06 359.91 377.99 C 357.27 378.14 355.59 375.27 355.89 372.89 C 356.61 372.26 357.34 371.64 358.07 371.02 Z" />
<path fill="#010101" opacity="1.00" d=" M 77.94 381.17 C 87.61 380.75 97.27 379.71 106.95 380.27 C 120.56 381.11 134.48 381.23 147.58 385.49 C 151.84 386.79 154.98 390.98 154.03 395.52 C 152.69 397.70 150.79 399.48 148.40 400.46 C 139.81 404.20 130.30 404.59 121.12 405.69 C 107.43 406.68 93.67 406.56 79.96 405.85 C 71.71 404.64 63.13 404.13 55.46 400.55 C 52.01 399.02 49.29 395.21 50.16 391.35 C 51.24 388.22 54.24 386.28 57.22 385.21 C 63.87 382.77 70.97 382.08 77.94 381.17 M 85.42 387.51 C 76.20 388.14 66.72 388.94 58.01 392.21 C 58.06 392.61 58.17 393.40 58.22 393.80 C 65.77 397.83 74.65 397.76 82.92 399.17 C 102.80 399.93 123.01 400.30 142.45 395.40 C 143.69 395.06 144.87 394.54 145.91 393.79 C 146.26 391.29 143.01 391.23 141.34 390.58 C 122.99 386.66 104.07 387.06 85.42 387.51 Z" />
<path fill="#010101" opacity="1.00" d=" M 410.24 402.08 C 420.10 401.44 429.96 402.47 439.78 403.30 C 446.99 404.28 454.36 405.09 461.16 407.85 C 463.54 408.70 465.34 410.54 467.06 412.31 C 467.09 414.07 467.07 415.83 467.02 417.59 C 465.11 419.57 462.97 421.37 460.33 422.25 C 448.09 426.80 434.88 427.01 422.02 427.89 C 419.67 428.03 416.37 428.25 415.36 425.55 C 414.49 423.77 416.14 422.37 417.00 421.00 C 428.08 420.81 439.21 420.01 450.11 417.92 C 453.30 417.12 456.88 416.80 459.40 414.47 C 448.39 410.52 436.58 410.21 425.07 409.08 C 420.43 408.64 415.63 409.61 411.10 408.35 C 408.11 407.73 407.71 403.56 410.24 402.08 Z" />
<path fill="#010101" opacity="1.00" d=" M 77.21 419.14 C 82.25 414.56 89.61 414.77 95.99 414.74 C 102.84 414.87 110.70 415.12 115.94 420.18 C 117.39 423.05 117.43 426.74 115.07 429.15 C 111.61 432.42 106.68 433.40 102.12 433.97 C 93.99 434.13 85.09 434.85 77.98 430.12 C 74.08 428.02 73.72 421.76 77.21 419.14 M 81.78 423.71 C 84.15 425.60 87.01 426.77 90.02 427.15 C 96.27 427.96 102.77 427.79 108.70 425.47 C 108.74 424.95 108.81 423.90 108.84 423.38 C 105.62 422.47 102.33 421.68 98.97 421.61 C 93.20 421.50 87.12 421.12 81.78 423.71 Z" />
<path fill="#010101" opacity="1.00" d=" M 358.91 427.18 C 355.34 426.36 356.21 420.31 359.99 420.78 C 370.62 420.43 381.30 420.52 391.92 420.85 C 395.31 421.02 395.50 424.93 393.51 426.95 C 386.09 428.19 378.52 427.30 371.04 427.55 C 367.00 427.43 362.89 427.97 358.91 427.18 Z" />
</g>
<g id="#601629ff">
<path fill="#601629" opacity="1.00" d=" M 201.60 154.45 C 218.83 153.45 236.54 154.85 252.67 161.38 C 265.88 166.46 278.12 174.00 288.88 183.17 C 294.71 187.57 301.63 191.11 305.89 197.16 C 303.60 200.99 300.24 204.12 298.21 208.14 C 296.46 211.58 293.95 214.55 290.77 216.73 C 275.79 215.46 261.08 210.11 249.21 200.81 C 243.49 195.78 238.00 190.33 234.10 183.72 C 231.88 180.28 230.25 176.44 227.38 173.45 C 221.20 173.70 214.99 173.96 208.83 173.44 C 205.78 173.52 204.28 170.55 202.45 168.63 C 199.92 165.41 196.12 163.14 194.72 159.12 C 196.76 157.27 198.60 154.61 201.60 154.45 Z" />
<path fill="#601629" opacity="1.00" d=" M 175.14 158.91 C 179.67 157.31 184.33 156.13 189.09 155.45 C 188.11 157.51 186.23 160.08 187.71 162.35 C 190.32 165.80 193.68 168.59 196.36 171.98 C 188.02 170.50 179.93 166.02 175.14 158.91 Z" />
<path fill="#601629" opacity="1.00" d=" M 177.03 172.30 C 186.81 176.86 197.36 179.51 208.08 180.56 C 213.44 180.89 218.82 180.55 224.18 180.52 C 227.43 185.92 231.35 190.88 235.09 195.95 C 247.14 210.24 264.59 219.66 282.97 222.65 C 297.46 225.06 312.07 221.07 325.25 215.25 C 328.60 213.90 331.76 211.92 335.41 211.50 C 326.88 222.45 315.21 230.62 302.94 236.90 C 288.03 243.52 271.39 246.95 255.11 244.75 C 235.88 241.97 217.49 232.90 203.96 218.91 C 190.89 206.29 181.13 190.06 177.03 172.30 Z" />
<path fill="#601629" opacity="1.00" d=" M 311.89 201.57 C 324.90 201.75 337.29 196.23 347.77 188.90 C 340.96 199.51 329.68 206.08 318.14 210.42 C 312.88 212.54 307.44 214.31 301.78 214.86 C 304.62 210.05 308.45 205.95 311.89 201.57 Z" />
<path fill="#601629" opacity="1.00" d=" M 146.48 363.70 C 154.35 363.02 162.44 363.11 170.10 365.30 C 168.21 367.89 164.82 368.24 161.87 368.57 C 157.30 368.85 152.71 368.76 148.13 368.59 C 145.58 368.37 142.72 368.06 140.89 366.07 C 142.01 364.12 144.53 364.14 146.48 363.70 Z" />
<path fill="#601629" opacity="1.00" d=" M 319.10 370.06 C 323.38 369.42 328.12 368.51 332.11 370.71 C 328.46 373.28 323.84 372.39 319.67 372.29 C 319.53 371.73 319.25 370.62 319.10 370.06 Z" />
<path fill="#601629" opacity="1.00" d=" M 85.42 387.51 C 104.07 387.06 122.99 386.66 141.34 390.58 C 143.01 391.23 146.26 391.29 145.91 393.79 C 144.87 394.54 143.69 395.06 142.45 395.40 C 123.01 400.30 102.80 399.93 82.92 399.17 C 74.65 397.76 65.77 397.83 58.22 393.80 C 58.17 393.40 58.06 392.61 58.01 392.21 C 66.72 388.94 76.20 388.14 85.42 387.51 Z" />
<path fill="#601629" opacity="1.00" d=" M 81.78 423.71 C 87.12 421.12 93.20 421.50 98.97 421.61 C 102.33 421.68 105.62 422.47 108.84 423.38 C 108.81 423.90 108.74 424.95 108.70 425.47 C 102.77 427.79 96.27 427.96 90.02 427.15 C 87.01 426.77 84.15 425.60 81.78 423.71 Z" />
</g>
</svg>
